# AST/ASF file generated using VICON BodyLanguage
# -----------------------------------------------
:version 1.10
:name VICON
:units
  mass 1.0
  length 0.45
  angle deg
:documentation
   .ast/.asf automatically generated from VICON data using
   VICON BodyBuilder and BodyLanguage model FoxedUp or BRILLIANT.MOD
:root
   order TX TY TZ RX RY RZ
   axis XYZ
   position 0 0 0  
   orientation 0 0 0 
:bonedata
  begin
     id 1 
     name lhipjoint
     direction 0.589753 -0.68606 0.426044 
     length 2.54082 
     axis 0 0 0  XYZ
  end
  begin
     id 2 
     name lfemur
     direction 0.34202 -0.939693 0  
     length 7.04539  
     axis 0 0 20  XYZ
    dof rx ry rz
    limits (-160.0 20.0)
           (-70.0 70.0)
           (-60.0 70.0)
  end
  begin
     id 3 
     name ltibia
     direction 0.34202 -0.939693 0   
     length 7.83772   
     axis 0 0 20   XYZ
    dof rx
    limits (-10.0 170.0)
  end
  begin
     id 4 
     name lfoot
     direction 0.0596604 -0.163915 0.984669   
     length 2.39542   
     axis -90 7.62852e-016 20   XYZ
    dof rx rz
    limits (-45.0 90.0)
           (-70.0 20.0)
  end
  begin
     id 5 
     name ltoes
     direction 1.53514e-011 -4.21954e-011 1   
     length 1.2047   
     axis -90 7.62852e-016 20   XYZ
    dof rx
    limits (-90.0 20.0)
  end
  begin
     id 6 
     name rhipjoint
     direction -0.580585 -0.69168 0.429534   
     length 2.52018  
     axis 0 0 0  XYZ 
  end
  begin
     id 7 
     name rfemur
     direction -0.34202 -0.939693 0   
     length 7.0101   
     axis 0 0 -20   XYZ
    dof rx ry rz
    limits (-160.0 20.0)
           (-70.0 70.0)
           (-70.0 60.0)
  end
  begin
     id 8 
     name rtibia
     direction -0.34202 -0.939693 0   
     length 7.70628   
     axis 0 0 -20   XYZ
    dof rx
    limits (-10.0 170.0)
 end
 begin
     id 9 
     name rfoot
     direction -0.0696237 -0.19129 0.979061   
     length 2.52466  
     axis -90 -7.62852e-016 -20   XYZ
    dof rx rz
    limits (-45.0 90.0)
           (-20.0 70.0)
  end
  begin
     id 10 
     name rtoes
     direction -1.53519e-011 -4.21793e-011 1   
     length 1.266   
     axis -90 -7.62852e-016 -20   XYZ
    dof rx
    limits (-90.0 20.0)
  end
  begin
     id 11 
     name lowerback
     direction 0.00381965 0.995707 -0.0924856   
     length 2.20825   
     axis 0 0 0   XYZ
    dof rx ry rz
    limits (-20.0 45.0)
           (-30.0 30.0)
           (-30.0 30.0)
  end
  begin
     id 12 
     name upperback
     direction -0.0139043 0.999634 -0.0231929   
     length 2.21517   
     axis 0 0 0   XYZ
    dof rx ry rz
    limits (-20.0 45.0)
           (-30.0 30.0)
           (-30.0 30.0)
  end
  begin
     id 13 
     name thorax
     direction -0.0143933 0.999691 0.0202892   
     length 2.22911   
     axis 0 0 0   XYZ
    dof rx ry rz
    limits (-20.0 45.0)
           (-30.0 30.0)
           (-30.0 30.0)
  end
  begin
     id 14 
     name lowerneck
     direction -0.0251153 0.981819 0.188153   
     length 1.61782   
     axis 0 0 0   XYZ
    dof rx ry rz
    limits (-20.0 45.0)
           (-30.0 30.0)
           (-30.0 30.0)
  end
  begin
     id 15 
     name upperneck
     direction 0.0563891 0.969357 -0.239095   
     length 1.64526   
     axis 0 0 0   XYZ
    dof rx ry rz
    limits (-20.0 45.0)
           (-30.0 30.0)
           (-30.0 30.0)
  end
  begin
     id 16
     name head
     direction 0.0208328 0.99459 -0.101773  
     length 1.67436  
     axis 0 0 0   XYZ
    dof rx ry rz
    limits (-20.0 45.0)
           (-30.0 30.0)
           (-30.0 30.0)
  end
  begin
     id 17 
     name lclavicle
     direction 0.917689 0.397224 0.00772059  
     length 3.31102  
     axis 0 0 0   XYZ
    dof ry rz
    limits (-20.0 10.0)
           (0.0 20.0)
  end
  begin
     id 18 
     name lhumerus
     direction 1 -4.4896e-011 2.32308e-027   
     length 5.25537   
     axis 180 -30 -90   XYZ
    dof rx ry rz
    limits (-60.0 90.0)
           (-90.0 90.0)
           (-90.0 90.0)
  end
  begin
     id 19
     name lradius
     direction 1 -4.49005e-011 -2.04271e-027   
     length 3.38855   
     axis 180 -30 -90   XYZ
    dof rx
    limits (-10.0 170.0)
  end
  begin
     id 20
     name lwrist
     direction 1 -4.48892e-011 2.56952e-028   
     length 1.69428   
     axis -5.12785e-016 90 90   XYZ
    dof ry
    limits (-180.0 0.0)
 end
  begin
     id 21 
     name lhand
     direction 1 -4.48966e-011 5.13905e-028   
     length 0.614516   
     axis -3.27915e-016 90 90   XYZ
    dof rx rz
    limits (-90.0 90.0)
           (-45.0 45.0)
  end
  begin
     id 22 
     name lfingers
     direction 1 -4.48979e-011 1.02781e-027   
     length 0.495439   
     axis -6.5583e-016 90 90   XYZ
    dof rx
    limits (0.0 90.0)
  end
  begin
     id 23
     name lthumb
     direction 0.707107 -6.35001e-011 0.707107   
     length 0.711354   
     axis -90 45 2.85299e-015   XYZ
    dof rx rz
    limits (-45.0 45.0)
           (-45.0 45.0)
  end
  begin
     id 24 
     name rclavicle
     direction -0.938556 0.342765 -0.0403177   
     length 3.27019  
     axis 0 0 0   XYZ 
    dof ry rz
    limits (-10.0 20.0)
           (-20.0 0.0)
  end
  begin
     id 25 
     name rhumerus
     direction -1 -4.48966e-011 2.52291e-027  
     length 5.38183   
     axis 180 30 90   XYZ
    dof rx ry rz
    limits (-90.0 60.0)
           (-90.0 90.0)
           (-90.0 90.0)
  end
  begin
     id 26 
     name rradius
     direction -1 -4.4896e-011 1.5797e-027   
     length 3.16988   
     axis 180 30 90   XYZ
    dof rx
    limits (-10.0 170.0)
  end
  begin
     id 27 
     name rwrist
     direction -1 -4.48947e-011 2.56952e-028   
     length 1.58494   
     axis -5.12785e-016 -90 -90   XYZ
    dof ry
    limits (-180.0 0.0)
  end
  begin
     id 28
     name rhand
     direction -1 -4.49098e-011 5.13905e-028   
     length 0.637679   
     axis -3.27915e-016 -90 -90   XYZ
    dof rx rz
    limits (-90.0 90.0)
           (-45.0 45.0)
  end
  begin
     id 29
     name rfingers
     direction -1 -4.49026e-011 1.02781e-027   
     length 0.514113   
     axis -6.5583e-016 -90 -90   XYZ
    dof rx
    limits (0.0 90.0)
  end
  begin
     id 30
     name rthumb
     direction -0.707107 -6.3491e-011 0.707107   
     length 0.738167   
     axis -90 -45 -2.85299e-015   XYZ
    dof rx rz
    limits (-45.0 45.0)
           (-45.0 45.0)
  end
:hierarchy
  begin
    root lhipjoint rhipjoint lowerback
    lhipjoint lfemur
    lfemur ltibia
    ltibia lfoot
    lfoot ltoes
    rhipjoint rfemur
    rfemur rtibia
    rtibia rfoot
    rfoot rtoes
    lowerback upperback
    upperback thorax
    thorax lowerneck lclavicle rclavicle
    lowerneck upperneck
    upperneck head
    lclavicle lhumerus
    lhumerus lradius
    lradius lwrist
    lwrist lhand lthumb
    lhand lfingers
    rclavicle rhumerus
    rhumerus rradius
    rradius rwrist
    rwrist rhand rthumb
    rhand rfingers
  end

#!OML:ASF H:\Swim\Project 1\Capture day 1\Session 1\swimmer.ASF
:FULLY-SPECIFIED
:DEGREES
4579
root 5.91812 11.704 21.3451 88.4073 -4.8293 -6.6154
lowerback 7.20615 0.0910359 -4.73716
upperback -8.47387 -0.676222 -1.15153
thorax -13.2952 0.0610649 1.51604
lowerneck -16.4862 -9.67571 -15.2105
upperneck -12.2693 -9.95096 21.7188
head 1.1479 -4.49909 8.63425
rclavicle 4.77083e-015 8.74653e-015
rhumerus 421.633 80.9447 372.757
rradius 58.3747
rwrist -10.4008
rhand 15.3228 2.39497
rfingers 7.12502
rthumb 40.1554 -382.784
lclavicle 4.77083e-015 8.74653e-015
lhumerus 22.9941 -33.5559 31.0891
lradius 71.9751
lwrist -0.671418
lhand -19.8906 -713.715
lfingers 7.12502
lthumb 6.44539 36.1665
rfemur -15.1999 -1.00349 25.0361
rtibia 39.9639
rfoot 6.61944 -7.7481
rtoes 1.13253
lfemur -16.1477 -2.07631 -21.0278
ltibia 36.2973
lfoot 0.428759 6.41831
ltoes -1.78821
4580
root 5.91694 11.704 21.3468 88.4114 -4.73754 -6.61955
lowerback 7.20079 0.095037 -4.80049
upperback -8.49628 -0.676083 -1.11981
thorax -13.3184 0.0701913 1.58606
lowerneck -16.5036 -9.70692 -15.1982
upperneck -12.3512 -9.98345 21.7632
head 1.13594 -4.51753 8.64454
rclavicle -3.18055e-015 -1.74931e-014
rhumerus 420.112 80.9751 370.977
rradius 57.9318
rwrist -10.7541
rhand 15.09 2.54964
rfingers 7.12502
rthumb 39.9363 -382.696
lclavicle -3.18055e-015 -1.74931e-014
lhumerus 23.0691 -34.0461 31.5793
lradius 71.3821
lwrist -0.90465
lhand -19.8202 -713.761
lfingers 7.12502
lthumb 6.51335 36.1191
rfemur -15.0576 -0.996743 25.0466
rtibia 39.9535
rfoot 6.78265 -7.72868
rtoes 1.3042
lfemur -16.2535 -2.29219 -20.9675
ltibia 36.2472
lfoot 0.297641 6.39438
ltoes -1.86265
4581
root 5.91522 11.7041 21.3484 88.4217 -4.65134 -6.62081
lowerback 7.19135 0.0939083 -4.85864
upperback -8.51924 -0.68255 -1.09145
thorax -13.3392 0.0753798 1.65074
lowerneck -16.4991 -9.73032 -15.2056
upperneck -12.4533 -10.0017 21.8275
head 1.11539 -4.52974 8.66779
rclavicle -1.59028e-015 -3.97569e-015
rhumerus 418.723 80.9883 369.312
rradius 57.4946
rwrist -11.1455
rhand 14.8789 2.68683
rfingers 7.12502
rthumb 39.7376 -382.618
lclavicle -1.59028e-015 -3.97569e-015
lhumerus 23.0769 -34.5254 32.0724
lradius 70.8311
lwrist -1.13528
lhand -19.7833 -713.794
lfingers 7.12502
lthumb 6.54905 36.0844
rfemur -14.9493 -0.97842 25.0536
rtibia 39.9542
rfoot 6.921 -7.69945
rtoes 1.32417
lfemur -16.3383 -2.43632 -20.9218
ltibia 36.2005
lfoot 0.215239 6.38965
ltoes -1.82376
4582
root 5.91308 11.7046 21.3494 88.4354 -4.56885 -6.62076
lowerback 7.1769 0.0891168 -4.90967
upperback -8.53972 -0.692973 -1.06531
thorax -13.3536 0.0776566 1.70975
lowerneck -16.5112 -9.75905 -15.2199
upperneck -12.5454 -10.0253 21.8981
head 1.10206 -4.5432 8.69287
rclavicle -8.74653e-015 1.27222e-014
rhumerus 417.52 80.9839 367.826
rradius 57.066
rwrist -11.5804
rhand 14.6087 2.83486
rfingers 7.12502
rthumb 39.4832 -382.545
lclavicle -8.74653e-015 1.27222e-014
lhumerus 23.0283 -34.996 32.5579
lradius 70.3238
lwrist -1.35736
lhand -19.7912 -713.814
lfingers 7.12502
lthumb 6.54143 36.0654
rfemur -14.8719 -0.95198 25.0589
rtibia 39.9652
rfoot 7.03534 -7.66359
rtoes 1.20685
lfemur -16.4003 -2.49943 -20.8893
ltibia 36.1603
lfoot 0.154488 6.40827
ltoes -1.72924
4583
root 5.91062 11.7052 21.3499 88.45 -4.49026 -6.61966
lowerback 7.16295 0.0836919 -4.95459
upperback -8.56235 -0.704001 -1.04278
thorax -13.3708 0.0789214 1.76146
lowerneck -16.496 -9.78129 -15.236
upperneck -12.6525 -10.0412 21.9645
head 1.07877 -4.55465 8.71908
rclavicle 1.59028e-015 -5.56597e-015
rhumerus 416.389 80.9717 366.403
rradius 56.6453
rwrist -12.0134
rhand 14.3021 2.99189
rfingers 7.12502
rthumb 39.1943 -382.472
lclavicle 1.59028e-015 -5.56597e-015
lhumerus 22.9237 -35.4682 33.0446
lradius 69.8692
lwrist -1.54685
lhand -19.8188 -713.819
lfingers 7.12502
lthumb 6.5147 36.0611
rfemur -14.8216 -0.917626 25.0623
rtibia 39.9837
rfoot 7.11706 -7.62733
rtoes 0.967312
lfemur -16.439 -2.48557 -20.871
ltibia 36.13
lfoot 0.120845 6.4394
ltoes -1.62462
